SplineFontDB: 3.2
FontName: Circles_0_01
FullName: Circles Regular
FamilyName: Circles
Weight: Regular
Copyright: Copyright (c) 2021, Sam Bell
UComments: "2021-12-11: Created with FontForge (http://fontforge.org)"
Version: 001.000
ItalicAngle: 0
UnderlinePosition: -90
UnderlineWidth: 44
Ascent: 730
Descent: 270
InvalidEm: 0
LayerCount: 2
Layer: 0 0 "Back" 1
Layer: 1 0 "Fore" 0
XUID: [1021 699 -2040542102 23543]
StyleMap: 0x0000
FSType: 0
OS2Version: 0
OS2_WeightWidthSlopeOnly: 0
OS2_UseTypoMetrics: 1
CreationTime: 1639215881
ModificationTime: 1641999818
PfmFamily: 17
TTFWeight: 400
TTFWidth: 5
LineGap: 90
VLineGap: 90
OS2TypoAscent: 730
OS2TypoAOffset: 0
OS2TypoDescent: -270
OS2TypoDOffset: 0
OS2TypoLinegap: 90
OS2WinAscent: 730
OS2WinAOffset: 0
OS2WinDescent: 270
OS2WinDOffset: 0
HheadAscent: 730
HheadAOffset: 0
HheadDescent: 270
HheadDOffset: 0
OS2Vendor: 'PfEd'
MarkAttachClasses: 1
DEI: 91125
Encoding: UnicodeFull
UnicodeInterp: none
NameList: AGL For New Fonts
DisplaySize: -72
AntiAlias: 1
FitToEm: 0
WinInfo: 37 37 15
BeginPrivate: 0
EndPrivate
Grid
748.181640625 492.727539062 m 1
 748.181640625 492.727539062 -9.0908203125 491.818359375 -115.454101562 492.727539062 c 0
 -9.0908203125 492.727539062 748.181640625 492.727539062 748.181640625 492.727539062 c 1
570 0 m 25
 570 726.36328125 l 25
 570 0 l 25
73.63671875 0 m 25
 73.63671875 726.36328125 l 25
 73.63671875 0 l 25
-110 -5.4541015625 m 0
 -3.63671875 -5.4541015625 753.63671875 -5.4541015625 753.63671875 -5.4541015625 c 1025
-115.454101562 487.272460938 m 0
 -9.0908203125 487.272460938 748.181640625 487.272460938 748.181640625 487.272460938 c 1025
EndSplineSet
BeginChars: 1114112 68

StartChar: a
Encoding: 97 97 0
Width: 587
VWidth: 908
Flags: W
HStem: -5 89<209.556 377.61 445 534> 402 88<210.22 366.136>
VStem: 40 90<164.43 324.767> 445 89<-1 88 243 324.74>
LayerCount: 2
Fore
SplineSet
289 -5 m 0
 152 -5 40 107 40 244 c 0
 40 289 52 330 73 366 c 0
 116 441 197 490 289 490 c 0
 311 490 332 487 352 482 c 0
 457 454 537 358 537 243 c 1
 447 243 l 1
 447 317 397 378 330 396 c 0
 317 400 304 402 289 402 c 0
 230 402 177 370 150 322 c 0
 136 298 130 273 130 244 c 0
 130 156 201 84 289 84 c 0
 318 84 343 91 367 105 c 1
 412 28 l 0
 376 7 334 -5 289 -5 c 0
445 -1 m 1
 445 88 l 1
 534 88 l 1
 534 -1 l 1
 445 -1 l 1
EndSplineSet
Validated: 1
EndChar

StartChar: b
Encoding: 98 98 1
Width: 576
VWidth: 908
Flags: W
HStem: -5 90<208.368 366.198> 403 89<197.998 367.264> 638 89<41 131>
VStem: 41 90<162.766 245 638 727> 446 90<164.257 324.21>
LayerCount: 2
Fore
SplineSet
288 492 m 0
 425 492 536 382 536 245 c 0
 536 200 524 156 503 120 c 0
 460 45 380 -5 288 -5 c 0
 266 -5 243 -1 223 4 c 0
 117 32 40 130 40 245 c 1
 129 245 l 1
 129 171 180 108 247 90 c 0
 260 86 273 85 288 85 c 0
 347 85 398 117 425 165 c 0
 439 189 446 216 446 245 c 0
 446 333 376 403 288 403 c 0
 259 403 233 395 209 381 c 1
 163 459 l 0
 199 480 243 492 288 492 c 0
41 638 m 1
 41 727 l 1
 131 727 l 1
 131 638 l 1
 41 638 l 1
EndSplineSet
Validated: 1
EndChar

StartChar: d
Encoding: 100 100 2
Width: 578
VWidth: 909
Flags: W
HStem: -6 89<210.639 367.475> 402 90<209.363 378.409> 639 89<447 537>
VStem: 40 90<162.318 321.817> 447 90<160.899 243 639 728>
LayerCount: 2
Fore
SplineSet
289 492 m 4
 334 492 377 479 414 458 c 0
 369 381 l 1
 346 395 318 402 289 402 c 0
 201 402 130 330 130 242 c 0
 130 213 137 186 151 163 c 0
 179 115 230 83 289 83 c 0
 303 83 317 85 330 89 c 0
 398 107 449 169 449 243 c 1
 538 243 l 1
 538 128 460 30 354 2 c 0
 333 -4 311 -6 289 -6 c 0
 197 -6 116 43 73 118 c 0
 52 155 40 197 40 242 c 0
 40 380 151 492 289 492 c 4
537 639 m 1
 447 639 l 1
 447 728 l 1
 537 728 l 1
 537 639 l 1
EndSplineSet
Validated: 1
EndChar

StartChar: g
Encoding: 103 103 3
Width: 588
VWidth: 757
Flags: W
HStem: -267 90<213.523 375.039> -5 89<213.79 385.246> 401 90<215.559 374.527>
VStem: 46 89<-95.4489 -18 163.177 322.817> 453 89<-95.4489 -18 242 318.824>
LayerCount: 2
Fore
SplineSet
293 401 m 0
 209 401 135 333 135 242 c 0
 135 154 205 84 293 84 c 0
 321 84 351 92 374 105 c 1
 419 27 l 1
 382 5 339 -5 293 -5 c 0
 156 -5 46 107 46 242 c 0
 46 288 58 330 80 366 c 0
 123 440 201 491 293 491 c 4
 316 491 338 487 359 482 c 0
 465 454 543 356 543 242 c 1
 452 242 l 1
 452 326 388 401 293 401 c 0
294 -177 m 0
 386 -177 453 -102 453 -18 c 1
 542 -18 l 1
 542 -110 492 -189 418 -233 c 0
 382 -255 340 -267 294 -267 c 0
 248 -267 208 -255 171 -233 c 0
 97 -189 45 -110 45 -18 c 1
 135 -18 l 1
 135 -102 202 -177 294 -177 c 0
EndSplineSet
Validated: 1
EndChar

StartChar: p
Encoding: 112 112 4
Width: 575
VWidth: 909
Flags: W
HStem: -238 89<41 130> -3 89<197.868 366.39> 403 89<207.728 366.555>
VStem: 41 89<-238 -149 245 326.31> 446 89<165.61 324.56>
LayerCount: 2
Fore
SplineSet
287 -3 m 0
 242 -3 200 9 164 30 c 0
 208 107 l 1
 231 94 258 86 287 86 c 0
 375 86 446 157 446 245 c 0
 446 274 438 301 425 324 c 0
 398 371 346 403 287 403 c 0
 273 403 259 402 246 398 c 0
 178 380 129 318 129 245 c 1
 40 245 l 1
 40 360 117 456 223 484 c 0
 243 489 265 492 287 492 c 0
 379 492 459 442 502 368 c 0
 523 332 535 290 535 245 c 0
 535 108 424 -3 287 -3 c 0
41 -149 m 1
 130 -149 l 1
 130 -238 l 1
 41 -238 l 1
 41 -149 l 1
EndSplineSet
Validated: 1
EndChar

StartChar: q
Encoding: 113 113 5
Width: 576
VWidth: 909
Flags: W
HStem: -239 89<445 534> -4 89<208.61 377.578> 402 89<208.445 367.329>
VStem: 40 89<164.61 322.95> 445 89<-239 -150 244 325.31>
LayerCount: 2
Fore
SplineSet
288 -4 m 4
 151 -4 40 107 40 244 c 4
 40 289 52 332 73 368 c 4
 116 442 196 491 288 491 c 4
 310 491 332 488 352 483 c 4
 458 455 536 359 536 244 c 5
 447 244 l 5
 447 317 397 379 329 397 c 4
 316 401 302 402 288 402 c 4
 229 402 177 370 150 323 c 4
 137 300 129 273 129 244 c 4
 129 156 200 85 288 85 c 4
 317 85 344 93 367 106 c 5
 412 29 l 4
 376 8 333 -4 288 -4 c 4
534 -150 m 5
 534 -239 l 5
 445 -239 l 5
 445 -150 l 5
 534 -150 l 5
EndSplineSet
EndChar

StartChar: z
Encoding: 122 122 6
Width: 573
VWidth: 909
Flags: W
HStem: 0 92<425 517> 395 92<50 142> 404 91<400.979 523>
VStem: 50 92<395 487> 58 92<-2.49686 156.927> 425 92<0 92>
LayerCount: 2
Fore
SplineSet
150 32 m 0xac
 150 21 151 9 152 -2 c 1
 60 -9 l 1
 59 4 58 17 58 32 c 0
 58 153 105 262 181 345 c 0
 266 438 388 495 523 495 c 1
 523 404 l 1
 415 404 316 358 248 283 c 0
 187 217 150 128 150 32 c 0xac
50 487 m 1xd4
 142 487 l 1
 142 395 l 1
 50 395 l 1
 50 487 l 1xd4
425 92 m 1
 517 92 l 1
 517 0 l 1
 425 0 l 1
 425 92 l 1
EndSplineSet
Validated: 1
EndChar

StartChar: o
Encoding: 111 111 7
Width: 574
VWidth: 909
Flags: W
HStem: -5 89<208.205 365.795> 400 89<208.205 365.795>
VStem: 40 89<163.205 320.795> 445 89<163.205 320.795>
LayerCount: 2
Fore
SplineSet
129 242 m 0
 129 155 200 84 287 84 c 0
 374 84 445 155 445 242 c 0
 445 329 374 400 287 400 c 0
 200 400 129 329 129 242 c 0
40 242 m 0
 40 378 151 489 287 489 c 0
 423 489 534 378 534 242 c 0
 534 106 423 -5 287 -5 c 0
 151 -5 40 106 40 242 c 0
EndSplineSet
Validated: 1
EndChar

StartChar: i
Encoding: 105 105 8
Width: 192
VWidth: 909
Flags: W
HStem: 0 92<50 142> 396 92<50 142> 550 91<50 142>
VStem: 50 92<0 92 396 488 550 641>
LayerCount: 2
Fore
SplineSet
50 0 m 1
 50 92 l 1
 142 92 l 1
 142 0 l 1
 50 0 l 1
50 396 m 1
 50 488 l 1
 142 488 l 1
 142 396 l 1
 50 396 l 1
50 550 m 1
 50 641 l 1
 142 641 l 1
 142 550 l 1
 50 550 l 1
EndSplineSet
Validated: 1
EndChar

StartChar: c
Encoding: 99 99 9
Width: 538
VWidth: 909
Flags: W
HStem: -5 89<210.071 366.436> 402 89<208.671 367.555>
VStem: 40 89<165.179 321.06>
LayerCount: 2
Fore
SplineSet
288 84 m 4
 347 84 399 116 426 164 c 0
 503 119 l 1
 460 45 380 -5 288 -5 c 0
 265 -5 244 -1 224 4 c 0
 118 32 40 128 40 243 c 0
 40 358 118 455 224 483 c 0
 244 488 266 491 288 491 c 0
 380 491 460 441 503 367 c 1
 426 323 l 1
 399 371 347 402 288 402 c 0
 274 402 260 401 247 397 c 0
 179 379 129 316 129 243 c 0
 129 170 179 108 247 90 c 0
 261 86 274 84 288 84 c 4
EndSplineSet
Validated: 1
EndChar

StartChar: k
Encoding: 107 107 10
Width: 565
VWidth: 909
Flags: W
HStem: -6 89<418.835 529> 402 86<432.196 466.872> 637 89<50 139>
VStem: 50 89<0 102.77 366.702 487 637 726>
LayerCount: 2
Fore
SplineSet
50 637 m 1
 50 726 l 1
 139 726 l 1
 139 637 l 1
 50 637 l 1
139 487 m 5
 139 425 157 363 188 306 c 1
 267 394 370 463 465 488 c 1
 488 402 l 1
 405 380 310 314 240 231 c 1
 314 144 420 83 529 83 c 1
 529 -6 l 1
 401 -6 277 60 187 157 c 1
 157 106 139 51 139 0 c 1
 50 0 l 1
 50 78 81 158 130 231 c 1
 80 308 50 398 50 487 c 1
 139 487 l 5
EndSplineSet
Validated: 1
EndChar

StartChar: m
Encoding: 109 109 11
Width: 1023
VWidth: 909
Flags: W
HStem: 0 91<50 141 470 559 882 973> 401 91<225.658 387.932 638.73 801.156>
VStem: 50 91<0 91 240 312.011> 470 89<0 91 240 319.731> 882 91<0 91 240 318.398>
LayerCount: 2
Fore
SplineSet
882 0 m 1
 882 91 l 1
 973 91 l 1
 973 0 l 1
 882 0 l 1
470 0 m 1
 470 91 l 1
 559 91 l 1
 559 0 l 1
 470 0 l 1
50 0 m 1
 50 91 l 1
 141 91 l 1
 141 0 l 1
 50 0 l 1
513 384 m 1
 554 442 628 492 721 492 c 0
 767 492 809 479 846 458 c 0
 922 414 973 333 973 240 c 1
 882 240 l 1
 882 325 815 401 721 401 c 0
 626 401 558 329 558 240 c 1
 469 240 l 1
 469 328 400 401 306 401 c 0
 211 401 145 326 145 240 c 1
 54 240 l 1
 54 373 159 492 306 492 c 0
 399 492 472 442 513 384 c 1
EndSplineSet
Validated: 1
EndChar

StartChar: s
Encoding: 115 115 12
Width: 581
VWidth: 909
Flags: W
HStem: 0 90<58 149 383 429.021> 201 90<151.592 198 383 425.623> 402 91<151.979 198 420 510>
VStem: 50 90<303.116 392.492> 58 91<0 90> 420 90<402 493> 441 90<97.5078 188.492>
LayerCount: 2
Fore
SplineSet
420 402 m 1xe4
 420 493 l 1
 510 493 l 1
 510 402 l 1
 420 402 l 1xe4
58 0 m 1xe8
 58 90 l 1
 149 90 l 1
 149 0 l 1
 58 0 l 1xe8
441 143 m 0xe2
 441 177 414 201 383 201 c 1
 383 291 l 1
 461 291 531 229 531 143 c 0
 531 57 461 -5 383 -5 c 1
 383 85 l 1
 414 85 441 109 441 143 c 0xe2
198 199 m 1
 119 199 50 260 50 347 c 0
 50 433 120 495 198 495 c 1
 198 405 l 1
 167 405 140 381 140 347 c 0xf0
 140 313 167 289 198 289 c 1
 198 199 l 1
EndSplineSet
Validated: 1
EndChar

StartChar: e
Encoding: 101 101 13
Width: 538
VWidth: 909
Flags: W
HStem: -5 90<207.993 366.436> 403 90<207.04 367.288>
VStem: 40 89<241 325.198>
LayerCount: 2
Fore
SplineSet
288 403 m 0
 193 403 129 329 129 244 c 0
 129 243 129 242 129 241 c 1
 372 379 l 1
 347 394 319 403 288 403 c 0
149 166 m 1
 174 121 222 85 288 85 c 0
 347 85 399 117 426 165 c 1
 503 120 l 1
 460 45 380 -5 288 -5 c 0
 265 -5 243 -1 223 4 c 0
 118 32 40 129 40 244 c 0
 40 359 118 456 223 485 c 0
 244 490 266 493 288 493 c 0
 380 493 460 443 503 368 c 1
 149 166 l 1
EndSplineSet
Validated: 1
EndChar

StartChar: v
Encoding: 118 118 14
Width: 550
VWidth: 909
Flags: W
HStem: -3 91<50 174.905> 396 91<50 141>
VStem: 50 91<396 487> 419 91<330.042 487>
LayerCount: 2
Fore
SplineSet
50 487 m 1
 141 487 l 1
 141 396 l 1
 50 396 l 1
 50 487 l 1
419 454 m 0
 419 465 418 476 417 487 c 1
 509 488 l 5
 510 475 510 468 510 454 c 0
 510 334 464 226 389 144 c 0
 305 52 184 -3 50 -3 c 1
 50 88 l 1
 158 88 255 131 322 205 c 0
 382 271 419 358 419 454 c 0
EndSplineSet
Validated: 1
EndChar

StartChar: h
Encoding: 104 104 15
Width: 598
VWidth: 909
Flags: W
HStem: 0 90<50 140 458 547> 401 89<219.518 377.788> 637 90<50 140>
VStem: 50 90<0 90 637 727> 458 89<0 90 241 318.203>
LayerCount: 2
Fore
SplineSet
548 241 m 1
 458 241 l 1
 458 310 414 369 353 391 c 0
 336 397 317 401 298 401 c 0
 249 401 205 378 176 343 c 1
 107 401 l 1
 153 456 221 490 298 490 c 0
 328 490 356 485 383 475 c 0
 479 440 548 349 548 241 c 1
50 637 m 1
 50 727 l 1
 140 727 l 1
 140 637 l 1
 50 637 l 1
50 0 m 1
 50 90 l 1
 140 90 l 1
 140 0 l 1
 50 0 l 1
458 0 m 1
 458 90 l 1
 547 90 l 1
 547 0 l 1
 458 0 l 1
EndSplineSet
Validated: 1
EndChar

StartChar: j
Encoding: 106 106 16
Width: 337
VWidth: 909
Flags: W
HStem: -240 88<97.7614 185.153> 399 87<199 287> 551 87<199 287>
VStem: 199 88<-139.228 -95 399 486 551 638>
LayerCount: 2
Fore
SplineSet
199 551 m 1
 199 638 l 1
 287 638 l 1
 287 551 l 1
 199 551 l 1
199 399 m 1
 199 486 l 1
 287 486 l 1
 287 399 l 1
 199 399 l 1
142 -152 m 0
 175 -152 199 -126 199 -95 c 1
 287 -95 l 1
 287 -171 229 -233 155 -239 c 0
 150 -239 145 -240 142 -240 c 0
 71 -240 12 -188 0 -120 c 1
 86 -105 l 1
 91 -132 114 -152 142 -152 c 0
EndSplineSet
EndChar

StartChar: l
Encoding: 108 108 17
Width: 376
VWidth: 909
Flags: W
HStem: -6 89<150.891 242.507> 638 89<50 139>
VStem: 50 89<95.5185 141 638 727>
LayerCount: 2
Fore
SplineSet
139 141 m 1
 139 103 168 83 197 83 c 0
 223 83 248 99 254 131 c 1
 341 116 l 1
 324 34 259 -6 195 -6 c 0
 122 -6 50 45 50 141 c 1
 139 141 l 1
50 638 m 1
 50 727 l 1
 139 727 l 1
 139 638 l 1
 50 638 l 1
EndSplineSet
EndChar

StartChar: f
Encoding: 102 102 18
Width: 349
VWidth: 909
Flags: W
HStem: 0 92<50 142> 394 92<175 268> 627 93<156.911 261.099>
VStem: 50 92<0 92 568 611.734> 175 93<394 486>
LayerCount: 2
Fore
SplineSet
201 627 m 0
 166 627 142 599 142 568 c 1
 50 568 l 1
 50 648 112 720 202 720 c 0
 244 720 281 703 309 675 c 1
 244 610 l 1
 234 620 218 627 201 627 c 0
50 0 m 1
 50 92 l 1
 142 92 l 1
 142 0 l 1
 50 0 l 1
175 394 m 1
 175 486 l 1
 268 486 l 1
 268 394 l 1
 175 394 l 1
EndSplineSet
Validated: 1
EndChar

StartChar: r
Encoding: 114 114 19
Width: 517
VWidth: 909
Flags: W
HStem: 0 91<50 141> 402 90<224.039 381.844>
VStem: 50 91<0 91 240 319.803>
LayerCount: 2
Fore
SplineSet
50 240 m 1
 50 345 114 435 206 473 c 0
 236 485 269 492 303 492 c 0
 373 492 436 465 482 419 c 1
 418 354 l 1
 389 383 348 402 303 402 c 0
 281 402 260 397 241 389 c 0
 182 365 141 307 141 240 c 1
 50 240 l 1
50 0 m 1
 50 91 l 1
 141 91 l 1
 141 0 l 1
 50 0 l 1
EndSplineSet
EndChar

StartChar: n
Encoding: 110 110 20
Width: 602
VWidth: 909
Flags: W
HStem: 2 90<52 142 462 552> 400 91<220.344 381.656>
VStem: 52 90<2 92 240 322.878> 462 90<2 92 240 318.975>
LayerCount: 2
Fore
SplineSet
552 240 m 1
 462 240 l 1
 462 300 429 351 381 379 c 0
 357 393 330 400 301 400 c 0
 272 400 244 393 221 379 c 0
 173 351 140 300 140 240 c 1
 50 240 l 1
 50 333 101 414 176 457 c 0
 213 478 255 491 301 491 c 0
 347 491 389 478 426 457 c 0
 501 414 552 333 552 240 c 1
52 2 m 1
 52 92 l 1
 142 92 l 1
 142 2 l 1
 52 2 l 1
462 2 m 1
 462 92 l 1
 552 92 l 1
 552 2 l 1
 462 2 l 1
EndSplineSet
Validated: 1
EndChar

StartChar: t
Encoding: 116 116 21
Width: 395
VWidth: 909
Flags: W
HStem: -5 91<156.59 244.397> 395 92<202 293> 549 92<50 141>
VStem: 50 91<103.329 146 549 641> 202 91<395 487>
LayerCount: 2
Fore
SplineSet
201 86 m 0
 230 86 255 107 260 135 c 1
 350 119 l 1
 338 48 275 -5 201 -5 c 0
 197 -5 193 -5 188 -5 c 0
 111 2 50 67 50 146 c 1
 141 146 l 1
 141 115 166 89 196 86 c 0
 197 86 198 86 201 86 c 0
50 549 m 5
 50 641 l 5
 141 641 l 5
 141 549 l 5
 50 549 l 5
202 395 m 1
 202 487 l 1
 293 487 l 1
 293 395 l 1
 202 395 l 1
EndSplineSet
EndChar

StartChar: u
Encoding: 117 117 22
Width: 600
VWidth: 909
Flags: W
HStem: -5 90<220.606 379.732> 397 90<52 142 459 549>
VStem: 52 90<162.797 245 397 487> 459 90<164.375 245 397 487>
LayerCount: 2
Fore
SplineSet
550 245 m 1
 550 153 500 72 425 29 c 0
 388 8 346 -5 301 -5 c 0
 256 -5 212 8 175 29 c 0
 100 72 50 153 50 245 c 1
 140 245 l 1
 140 186 172 135 220 107 c 0
 243 94 272 85 301 85 c 0
 330 85 356 93 380 107 c 0
 428 135 460 186 460 245 c 1
 550 245 l 1
52 487 m 1
 142 487 l 1
 142 397 l 1
 52 397 l 1
 52 487 l 1
459 487 m 1
 549 487 l 1
 549 397 l 1
 459 397 l 1
 459 487 l 1
EndSplineSet
Validated: 1
EndChar

StartChar: x
Encoding: 120 120 23
Width: 580
VWidth: 909
Flags: W
HStem: -1 90<50 130.58 449.42 530> 397 90<50 130.58 449.42 530>
VStem: 202 176<211.008 274.729>
LayerCount: 2
Fore
SplineSet
530 487 m 5
 530 397 l 5
 471 397 427 371 399 323 c 0
 385 299 378 272 378 243 c 0
 378 214 386 186 399 163 c 0
 427 115 471 89 530 89 c 5
 530 -1 l 5
 438 -1 364 43 321 118 c 0
 305 146 294 178 290 211 c 1
 286 178 275 146 259 118 c 0
 216 43 142 -1 50 -1 c 1
 50 89 l 1
 109 89 153 115 181 163 c 0
 194 186 202 214 202 243 c 0
 202 272 195 299 181 323 c 0
 153 371 109 397 50 397 c 1
 50 487 l 1
 142 487 216 443 259 368 c 0
 275 340 286 309 290 276 c 1
 294 309 305 340 321 368 c 0
 364 443 438 487 530 487 c 5
EndSplineSet
Validated: 1
EndChar

StartChar: y
Encoding: 121 121 24
Width: 608
VWidth: 909
Flags: W
HStem: -271 91<223.354 384.533> -5 91<223.636 385.533> 397 91<51 142 467 558>
VStem: 51 91<-97.4755 -18 168.346 248 397 488> 467 91<-97.6535 -18 168.346 248 397 488>
LayerCount: 2
Fore
SplineSet
558 248 m 1
 558 154 507 73 431 29 c 0
 394 8 351 -5 305 -5 c 0
 259 -5 215 7 178 29 c 0
 102 73 51 154 51 248 c 1
 142 248 l 1
 142 188 174 136 223 108 c 0
 247 94 276 86 305 86 c 0
 334 86 362 94 386 108 c 0
 435 136 467 188 467 248 c 1
 558 248 l 1
557 -18 m 5
 557 -112 506 -193 430 -237 c 4
 393 -258 350 -271 304 -271 c 4
 258 -271 215 -257 177 -237 c 4
 100 -195 65 -93 50 -18 c 5
 142 -18 l 5
 142 -78 174 -130 223 -158 c 4
 247 -172 275 -180 304 -180 c 4
 333 -180 361 -172 385 -158 c 4
 434 -130 466 -78 466 -18 c 5
 557 -18 l 5
51 488 m 1
 142 488 l 1
 142 397 l 1
 51 397 l 1
 51 488 l 1
467 488 m 1
 558 488 l 1
 558 397 l 1
 467 397 l 1
 467 488 l 1
EndSplineSet
Validated: 1
EndChar

StartChar: w
Encoding: 119 119 25
Width: 1023
VWidth: 909
Flags: W
HStem: -6 92<222.905 384.416 637.291 798.988> 397 91<50 142 468 559 882 973>
VStem: 50 92<168.965 248 397 488> 468 91<172.319 248 397 488> 882 91<168.965 248 397 488>
LayerCount: 2
Fore
SplineSet
882 488 m 1
 973 488 l 1
 973 397 l 1
 882 397 l 1
 882 488 l 1
468 488 m 1
 559 488 l 1
 559 397 l 1
 468 397 l 1
 468 488 l 1
50 488 m 1
 142 488 l 1
 142 397 l 1
 50 397 l 1
 50 488 l 1
720 86 m 0
 815 86 882 162 882 248 c 1
 973 248 l 1
 973 114 868 -6 720 -6 c 0
 627 -6 551 44 511 103 c 1
 471 44 397 -6 304 -6 c 0
 156 -6 50 114 50 248 c 1
 141 248 l 1
 141 161 208 86 304 86 c 0
 399 86 466 162 466 248 c 1
 557 248 l 1
 557 161 624 86 720 86 c 0
EndSplineSet
Validated: 1
EndChar

StartChar: T
Encoding: 84 84 26
Width: 844
VWidth: 909
Flags: W
HStem: 0 91<376 466> 639 88<74 768>
VStem: 376 90<0 91>
LayerCount: 2
Fore
SplineSet
376 0 m 1
 376 91 l 1
 466 91 l 1
 466 0 l 1
 376 0 l 1
74 727 m 1
 768 727 l 1
 768 639 l 1
 74 639 l 1
 74 727 l 1
EndSplineSet
Validated: 1
EndChar

StartChar: I
Encoding: 73 73 27
Width: 250
VWidth: 909
Flags: W
HStem: 0 89<74 163> 638 89<73 163>
VStem: 74 89<0 89 638 727>
LayerCount: 2
Fore
SplineSet
73 727 m 1
 163 727 l 1
 163 638 l 1
 73 638 l 1
 73 727 l 1
74 89 m 1
 163 89 l 1
 163 0 l 1
 74 0 l 1
 74 89 l 1
EndSplineSet
Validated: 1
EndChar

StartChar: A
Encoding: 65 65 28
Width: 841
VWidth: 999
Flags: W
HStem: 0 90<74 164 673 763> 299 88<164 672> 641 90<315.005 520.995>
VStem: 74 90<0 90 387 488.831> 673 90<0 90 387 483.096>
LayerCount: 2
Fore
SplineSet
246 685 m 0
 297 714 355 731 418 731 c 0
 481 731 539 714 590 685 c 0
 728 605 762 488 762 299 c 1
 74 299 l 1
 74 486 109 606 246 685 c 0
74 0 m 1
 74 90 l 1
 164 90 l 1
 164 0 l 1
 74 0 l 1
673 0 m 1
 673 90 l 1
 763 90 l 1
 763 0 l 1
 673 0 l 1
672 387 m 1
 672 521 566 641 418 641 c 0
 270 641 164 521 164 387 c 1
 672 387 l 1
EndSplineSet
Validated: 1
EndChar

StartChar: C
Encoding: 67 67 29
Width: 782
VWidth: 999
Flags: W
HStem: -6 90<335.497 547.68> 643 89<336.639 549.677>
VStem: 74 89<257.258 468.742>
LayerCount: 2
Fore
SplineSet
443 643 m 4
 405 643 369 635 336 621 c 4
 235 579 163 479 163 363 c 4
 163 247 235 147 336 105 c 4
 369 91 404 84 442 84 c 4
 519 84 590 116 640 166 c 5
 703 102 l 5
 636 35 544 -6 442 -6 c 4
 392 -6 345 4 302 22 c 4
 168 77 74 209 74 363 c 4
 74 517 168 649 302 704 c 4
 345 722 393 732 443 732 c 4
 545 732 636 691 703 624 c 5
 640 561 l 5
 589 612 520 643 443 643 c 4
EndSplineSet
Validated: 1
EndChar

StartChar: B
Encoding: 66 66 30
Width: 728
VWidth: 999
Flags: W
HStem: -1 82<392 474.952> 0 90<72 161> 461 66<391 427.896> 639 89<74 163> 648 82<390 432.552>
VStem: 72 89<0 90 639 728> 443 82<549.013 629.965> 574 82<176.536 349.464>
LayerCount: 2
Fore
SplineSet
391 461 m 1xaf
 391 527 l 1
 411 527 427 542 436 558 c 0
 440 566 443 582 443 592 c 0
 443 602 440 614 436 622 c 0
 427 638 410 648 390 648 c 1
 390 730 l 1
 440 730 484 703 507 663 c 0
 518 643 525 620 525 596 c 0
 525 572 518 548 507 528 c 0
 503 520 498 514 492 507 c 1
 546 485 591 445 620 395 c 0
 642 356 656 311 656 263 c 0
 656 215 642 170 620 131 c 0
 574 52 490 -1 392 -1 c 1
 392 81 l 1
 459 81 519 118 550 172 c 0
 565 199 574 230 574 263 c 0
 574 296 565 327 550 354 c 0
 519 408 458 461 391 461 c 1xaf
72 0 m 1x67
 72 90 l 1
 161 90 l 1
 161 0 l 1
 72 0 l 1x67
74 639 m 1x37
 74 728 l 1
 163 728 l 1
 163 639 l 1
 74 639 l 1x37
EndSplineSet
Validated: 1
EndChar

StartChar: D
Encoding: 68 68 31
Width: 782
VWidth: 999
Flags: W
HStem: -4 82<343 451.234> -0 90<74 164> 636 90<74 164> 649 83<343 451.234>
VStem: 74 90<0 90 636 726> 628 83<254.088 473.636>
LayerCount: 2
Fore
SplineSet
74 636 m 1x2c
 74 726 l 1
 164 726 l 1
 164 636 l 1
 74 636 l 1x2c
74 -0 m 1x4c
 74 90 l 1
 164 90 l 1
 164 -0 l 1
 74 -0 l 1x4c
628 364 m 4
 628 530 494 649 343 649 c 1
 343 732 l 1
 479 732 597 658 661 548 c 0
 692 494 711 431 711 364 c 0
 711 297 692 234 661 180 c 0
 597 70 479 -4 343 -4 c 1
 343 78 l 1x9c
 494 78 628 197 628 364 c 4
EndSplineSet
Validated: 1
EndChar

StartChar: G
Encoding: 71 71 32
Width: 891
VWidth: 999
Flags: W
HStem: -6 90<341.171 548.922> 280 90<520 610> 644 89<342.064 552.13>
VStem: 75 90<258.252 472.495> 520 90<280 370> 725 89<262.195 364>
LayerCount: 2
Fore
SplineSet
520 280 m 1
 520 370 l 1
 610 370 l 1
 610 280 l 1
 520 280 l 1
75 364 m 0
 75 565 238 733 445 733 c 0
 524 733 597 709 657 667 c 1
 605 593 l 1
 560 625 505 644 445 644 c 0
 288 644 165 517 165 364 c 0
 165 318 177 274 197 235 c 0
 244 145 337 84 445 84 c 0
 468 84 489 87 511 92 c 0
 633 122 725 233 725 364 c 1
 814 364 l 1
 814 190 694 45 533 5 c 0
 505 -2 476 -6 445 -6 c 0
 302 -6 179 76 117 194 c 0
 91 245 75 302 75 364 c 0
EndSplineSet
Validated: 1
EndChar

StartChar: F
Encoding: 70 70 33
Width: 590
VWidth: 999
Flags: W
HStem: 0 90<72 162> 301 90<322 412> 638 90<236.07 322 464 554>
VStem: 72 90<0 90 485 563.661> 322 90<301 391> 464 90<638 728>
LayerCount: 2
Fore
SplineSet
464 638 m 1
 464 728 l 1
 554 728 l 1
 554 638 l 1
 464 638 l 1
322 301 m 1
 322 391 l 1
 412 391 l 1
 412 301 l 1
 322 301 l 1
72 485 m 1
 72 623 184 730 322 730 c 1
 322 640 l 1
 234 640 162 574 162 485 c 1
 72 485 l 1
72 0 m 1
 72 90 l 1
 162 90 l 1
 162 0 l 1
 72 0 l 1
EndSplineSet
Validated: 1
EndChar

StartChar: L
Encoding: 76 76 34
Width: 759
VWidth: 999
Flags: W
HStem: 0 89<73 685> 637 90<73 163>
VStem: 73 90<637 727>
LayerCount: 2
Fore
SplineSet
73 637 m 1
 73 727 l 1
 163 727 l 1
 163 637 l 1
 73 637 l 1
73 89 m 1
 685 89 l 1
 685 0 l 1
 73 0 l 1
 73 89 l 1
EndSplineSet
Validated: 1
EndChar

StartChar: N
Encoding: 78 78 35
Width: 841
VWidth: 999
Flags: W
HStem: 0 90<74 164 673 763> 641 91<315.252 520.959>
VStem: 74 90<0 90 387 486.39> 673 90<0 90 387 483.641>
LayerCount: 2
Fore
SplineSet
673 0 m 1
 673 90 l 1
 763 90 l 1
 763 0 l 1
 673 0 l 1
418 641 m 0
 270 641 164 522 164 387 c 1
 74 387 l 5
 74 617 246 732 418 732 c 0
 590 732 762 617 762 387 c 5
 672 387 l 1
 672 522 567 641 418 641 c 0
74 0 m 1
 74 90 l 1
 164 90 l 1
 164 0 l 1
 74 0 l 1
EndSplineSet
Validated: 1
EndChar

StartChar: O
Encoding: 79 79 36
Width: 874
VWidth: 999
Flags: W
HStem: -5 86<335.252 538.64> 645 87<335.252 538.64>
VStem: 68 89<261.152 464.887> 716 89<257.978 468.061>
LayerCount: 2
Fore
SplineSet
437 81 m 4
 591 81 716 209 716 363 c 0
 716 517 591 645 437 645 c 0
 283 645 157 517 157 363 c 0
 157 209 283 81 437 81 c 4
437 -5 m 0
 233 -5 68 159 68 363 c 0
 68 567 233 732 437 732 c 0
 641 732 805 567 805 363 c 0
 805 159 641 -5 437 -5 c 0
EndSplineSet
Validated: 1
EndChar

StartChar: Y
Encoding: 89 89 37
Width: 829
VWidth: 999
Flags: W
HStem: 0 90<367 457> 384 90<308.947 514.841> 708 20G<69 158 666 756>
VStem: 69 89<626.169 728> 367 90<0 90> 666 90<625.739 728>
LayerCount: 2
Fore
SplineSet
412 474 m 0
 560 474 666 593 666 728 c 1
 756 728 l 1
 756 601 687 489 584 430 c 0
 533 401 474 384 412 384 c 0
 350 384 290 401 240 430 c 0
 137 489 69 601 69 728 c 1
 158 728 l 1
 158 594 264 474 412 474 c 0
367 0 m 1
 367 90 l 1
 457 90 l 1
 457 0 l 1
 367 0 l 1
EndSplineSet
Validated: 1
EndChar

StartChar: E
Encoding: 69 69 38
Width: 663
VWidth: 999
Flags: W
HStem: -3 90<239.845 320 500 590> 323 90<362 452> 639 90<239.845 320 500 590>
VStem: 70 90<165.521 245 482 561.479> 362 90<323 413> 500 90<-3 87 639 729>
LayerCount: 2
Fore
SplineSet
500 639 m 1
 500 729 l 1
 590 729 l 1
 590 639 l 1
 500 639 l 1
362 323 m 1
 362 413 l 1
 452 413 l 1
 452 323 l 1
 362 323 l 1
70 482 m 1
 70 620 182 732 320 732 c 1
 320 642 l 1
 232 642 160 570 160 482 c 1
 70 482 l 1
70 245 m 1
 160 245 l 1
 160 157 232 85 320 85 c 1
 320 -5 l 1
 182 -5 70 107 70 245 c 1
500 -3 m 1
 500 87 l 1
 590 87 l 1
 590 -3 l 1
 500 -3 l 1
EndSplineSet
Validated: 1
EndChar

StartChar: Z
Encoding: 90 90 39
Width: 686
VWidth: 999
Flags: W
HStem: 2 90<520 610> 636 91<74 164>
VStem: 67 91<0 163.815> 74 90<636 727> 520 90<2 92>
LayerCount: 2
Fore
SplineSet
74 636 m 1xd8
 74 727 l 1
 164 727 l 1
 164 636 l 1
 74 636 l 1xd8
520 2 m 1
 520 92 l 1
 610 92 l 1
 610 2 l 1
 520 2 l 1
67 0 m 1xe8
 67 340 283 629 585 739 c 1
 615 654 l 1
 348 557 158 301 158 0 c 1
 67 0 l 1xe8
EndSplineSet
Validated: 1
EndChar

StartChar: U
Encoding: 85 85 40
Width: 841
VWidth: 999
Flags: W
HStem: -6 92<314.149 521.947> 637 90<74 164 673 763>
VStem: 74 90<231.519 340 637 727> 673 90<231.519 340 637 727>
LayerCount: 2
Fore
SplineSet
673 727 m 1
 763 727 l 1
 763 637 l 1
 673 637 l 1
 673 727 l 1
74 340 m 1
 164 340 l 1
 164 171 291 86 418 86 c 0
 545 86 673 171 673 340 c 1
 762 340 l 1
 762 110 590 -6 418 -6 c 0
 246 -6 74 110 74 340 c 1
74 727 m 1
 164 727 l 1
 164 637 l 1
 74 637 l 1
 74 727 l 1
EndSplineSet
Validated: 1
EndChar

StartChar: H
Encoding: 72 72 41
Width: 842
VWidth: 999
Flags: W
HStem: 0 91<72 163 681 771> 299 88<74 771> 637 91<72 163 681 771>
VStem: 72 91<0 91 637 728> 681 90<0 91 637 728>
LayerCount: 2
Fore
SplineSet
681 0 m 1
 681 91 l 1
 771 91 l 1
 771 0 l 1
 681 0 l 1
72 0 m 1
 72 91 l 1
 163 91 l 1
 163 0 l 1
 72 0 l 1
74 387 m 1
 771 387 l 1
 771 299 l 1
 74 299 l 1
 74 387 l 1
72 637 m 1
 72 728 l 1
 163 728 l 1
 163 637 l 1
 72 637 l 1
681 637 m 1
 681 728 l 1
 771 728 l 1
 771 637 l 1
 681 637 l 1
EndSplineSet
Validated: 1
EndChar

StartChar: Q
Encoding: 81 81 42
Width: 875
VWidth: 999
Flags: W
HStem: -6 90<332.212 546.223 712 801> 642 90<331.952 540.967>
VStem: 69 89<258.845 470.81> 712 89<0 89 363 476.339>
LayerCount: 2
Fore
SplineSet
437 642 m 0
 289 642 158 527 158 364 c 0
 158 209 283 84 437 84 c 0
 488 84 536 97 577 121 c 1
 621 44 l 1
 567 13 504 -6 437 -6 c 0
 233 -6 69 160 69 364 c 0
 69 431 87 493 118 547 c 0
 182 657 301 732 437 732 c 0
 470 732 503 727 533 719 c 0
 690 677 806 533 806 363 c 1
 716 363 l 1
 716 492 628 601 509 633 c 0
 486 639 462 642 437 642 c 0
712 -0 m 1
 712 89 l 1
 801 89 l 1
 801 -0 l 1
 712 -0 l 1
EndSplineSet
Validated: 1
EndChar

StartChar: K
Encoding: 75 75 43
Width: 767
VWidth: 999
Flags: W
HStem: -1 89<73 162 531.715 697> 311 89<73 170.499> 320 89<74.7805 187.458> 639 88<73 162>
VStem: 73 89<-1 88 639 727> 509 88<626.39 728>
LayerCount: 2
Fore
SplineSet
509 728 m 5xbc
 597 728 l 5
 597 610 535 503 439 429 c 4
 390 392 333 361 270 341 c 5
 287 281 327 227 384 183 c 4
 462 123 574 84 697 84 c 5
 697 -5 l 5
 555 -5 426 39 330 113 c 4
 259 167 207 239 184 320 c 5xbc
 148 314 111 311 73 311 c 5
 73 400 l 5xdc
 107 400 140 402 172 408 c 4
 172 409 l 5
 176 409 l 5
 258 424 329 456 385 499 c 4
 463 559 509 642 509 728 c 5xbc
73 88 m 5
 162 88 l 5
 162 -1 l 5
 73 -1 l 5
 73 88 l 5
73 727 m 5
 162 727 l 5
 162 639 l 5
 73 639 l 5
 73 727 l 5
EndSplineSet
Validated: 1
EndChar

StartChar: V
Encoding: 86 86 44
Width: 796
VWidth: 999
Flags: W
HStem: -6 90<74 220.2> 638 89<75 164>
VStem: 75 89<638 727> 651 89<556.938 728>
LayerCount: 2
Fore
SplineSet
75 727 m 1
 164 727 l 1
 164 638 l 1
 75 638 l 1
 75 727 l 1
740 728 m 1
 740 458 610 226 412 96 c 0
 313 31 198 -6 74 -6 c 1
 74 84 l 1
 179 84 278 115 363 171 c 0
 534 283 651 487 651 728 c 1
 740 728 l 1
EndSplineSet
Validated: 1
EndChar

StartChar: J
Encoding: 74 74 45
Width: 730
VWidth: 999
Flags: W
HStem: -275 84<207.856 417.448> 643 84<74 661>
VStem: 576 84<-28.0232 74>
LayerCount: 2
Fore
SplineSet
660 74 m 1
 660 -71 571 -196 445 -248 c 0
 404 -265 358 -275 311 -275 c 0
 215 -275 128 -236 65 -173 c 1
 124 -113 l 1
 172 -161 238 -191 311 -191 c 0
 347 -191 382 -184 413 -171 c 0
 509 -131 576 -36 576 74 c 1
 660 74 l 1
74 727 m 1
 661 726 l 1
 661 643 l 1
 74 643 l 1
 74 727 l 1
EndSplineSet
Validated: 1
EndChar

StartChar: X
Encoding: 88 88 47
Width: 886
VWidth: 999
Flags: W
HStem: 0 21G<73 163 721 810> 304 118<343.42 539.307> 707 20G<73 163 721 810>
VStem: 73 90<0 115.189 611.811 727> 721 89<0 112.57 614.43 727>
LayerCount: 2
Fore
SplineSet
73 0 m 5
 73 136 148 269 258 333 c 0
 279 345 302 356 326 364 c 1
 302 372 279 382 258 394 c 0
 148 458 73 591 73 727 c 1
 163 727 l 1
 163 624 214 514 298 466 c 0
 339 442 390 422 441 422 c 0
 492 422 544 442 585 466 c 0
 669 514 721 624 721 727 c 1
 810 727 l 1
 810 591 736 458 626 394 c 0
 605 382 582 372 558 364 c 1
 582 356 605 345 626 333 c 0
 736 269 810 136 810 0 c 1
 721 0 l 1
 721 103 669 213 585 261 c 0
 544 285 492 304 441 304 c 0
 390 304 339 285 298 261 c 0
 214 213 163 103 163 0 c 1
 73 0 l 5
EndSplineSet
Validated: 1
EndChar

StartChar: W
Encoding: 87 87 48
Width: 1071
VWidth: 909
Flags: W
HStem: -6 92<247.85 407.537 662.115 821.988> 636 91<73 165 491 582 905 996>
VStem: 73 92<168.965 248 636 727> 491 91<172.319 248 636 727> 905 91<168.965 248 636 727>
LayerCount: 2
Fore
SplineSet
905 727 m 1
 996 727 l 1
 996 636 l 1
 905 636 l 1
 905 727 l 1
491 727 m 1
 582 727 l 1
 582 636 l 1
 491 636 l 1
 491 727 l 1
73 727 m 1
 165 727 l 1
 165 636 l 1
 73 636 l 1
 73 727 l 1
534 103 m 1
 493 44 421 -6 327 -6 c 0
 179 -6 73 114 73 248 c 1
 164 248 l 1
 164 162 232 86 327 86 c 0
 422 86 489 162 489 248 c 1
 580 248 l 1
 580 162 648 86 743 86 c 0
 838 86 905 162 905 248 c 1
 996 248 l 1
 996 114 891 -6 743 -6 c 0
 649 -6 575 44 534 103 c 1
EndSplineSet
Validated: 1
EndChar

StartChar: M
Encoding: 77 77 49
Width: 1071
VWidth: 909
Flags: W
HStem: -0 91<73 164 487 578 904 996> 642 91<247.012 406.885 661.463 821.15>
VStem: 73 91<0 91 480 558.928> 487 91<0 91 480 555.681> 904 92<0 91 480 558.928>
LayerCount: 2
Fore
SplineSet
164 -0 m 1
 73 -0 l 1
 73 91 l 1
 164 91 l 1
 164 -0 l 1
578 -0 m 1
 487 -0 l 1
 487 91 l 1
 578 91 l 1
 578 -0 l 1
996 -0 m 1
 904 -0 l 1
 904 91 l 1
 996 91 l 1
 996 -0 l 1
326 642 m 0
 231 642 164 566 164 480 c 1
 73 480 l 5
 73 614 178 733 326 733 c 0
 420 733 494 683 535 624 c 1
 576 683 648 733 742 733 c 0
 890 733 996 614 996 480 c 1
 905 480 l 1
 905 566 837 642 742 642 c 0
 647 642 580 566 580 480 c 1
 489 480 l 1
 489 566 421 642 326 642 c 0
EndSplineSet
Validated: 1
EndChar

StartChar: period
Encoding: 46 46 50
Width: 237
VWidth: 909
Flags: W
HStem: 0 92<74 166>
VStem: 74 92<0 92>
LayerCount: 2
Fore
SplineSet
74 0 m 1
 74 92 l 1
 166 92 l 1
 166 0 l 1
 74 0 l 1
EndSplineSet
Validated: 1
EndChar

StartChar: colon
Encoding: 58 58 51
Width: 237
VWidth: 909
Flags: W
HStem: 49 92<74 166> 351 92<74 166>
VStem: 74 92<49 141 351 443>
LayerCount: 2
Fore
SplineSet
74 49 m 1
 74 141 l 1
 166 141 l 1
 166 49 l 1
 74 49 l 1
74 351 m 5
 74 443 l 5
 166 443 l 5
 166 351 l 5
 74 351 l 5
EndSplineSet
Validated: 1
EndChar

StartChar: P
Encoding: 80 80 52
Width: 728
VWidth: 999
Flags: W
HStem: 0 90<72 161> 194 89<72 161> 203 81<392 474.952> 639 89<74 163> 649 81<392 474.952>
VStem: 72 89<0 90 194 283 639 728> 574 82<379.031 554.12>
LayerCount: 2
Fore
SplineSet
72 194 m 1xc6
 72 283 l 1
 161 283 l 1
 161 194 l 1
 72 194 l 1xc6
74 639 m 1x96
 74 728 l 1
 163 728 l 1
 163 639 l 1
 74 639 l 1x96
72 0 m 1
 72 90 l 1
 161 90 l 1
 161 0 l 1
 72 0 l 1
392 730 m 1xae
 490 730 574 677 620 598 c 0
 642 559 656 515 656 467 c 0
 656 419 642 374 620 335 c 0
 574 256 490 203 392 203 c 1
 392 284 l 1
 459 284 519 321 550 375 c 0
 565 402 574 434 574 467 c 0
 574 500 565 531 550 558 c 0
 519 612 459 649 392 649 c 1
 392 730 l 1xae
EndSplineSet
Validated: 1
EndChar

StartChar: ccedilla
Encoding: 231 231 53
Width: 548
VWidth: 999
Flags: W
HStem: -209 89<227.99 329.994> -5 89<209.913 330.656> 403 89<207.695 366.255>
VStem: 40 89<164.868 322.926> 344 89<-105.766 -17.4683>
LayerCount: 2
Fore
SplineSet
129 244 m 0
 129 160 195 84 288 84 c 4
 347 84 399 116 426 164 c 0
 503 119 l 1
 480 79 446 46 405 24 c 1
 422 1 433 -25 433 -62 c 0
 433 -140 372 -209 287 -209 c 0
 247 -209 210 -193 183 -166 c 1
 246 -103 l 1
 256 -113 271 -120 287 -120 c 0
 320 -120 344 -92 344 -62 c 0
 344 -28 317 -5 287 -5 c 0
 265 -5 244 -1 224 4 c 0
 118 32 40 129 40 244 c 0
 40 359 118 455 224 483 c 0
 245 488 266 492 288 492 c 0
 380 492 460 442 503 368 c 1
 426 323 l 1
 398 371 347 403 288 403 c 0
 194 403 129 328 129 244 c 0
EndSplineSet
Validated: 1
EndChar

StartChar: eight
Encoding: 56 56 54
Width: 638
Flags: W
HStem: -6 81<246.184 395.816> 408 99<273.912 368.088> 655 81<274.059 367.941>
VStem: 73 89<162.348 324.525> 164 89<528.554 633.312> 389 89<528.554 633.312> 480 89<162.722 324.899>
LayerCount: 2
Fore
SplineSet
164 579 m 0
 164 666 234 736 321 736 c 0
 408 736 478 666 478 579 c 0
 478 534 447 493 417 465 c 1
 499 425 569 340 569 242 c 0
 569 105 458 -6 321 -6 c 0
 184 -6 73 105 73 242 c 0
 73 340 143 425 225 465 c 1
 195 493 164 534 164 579 c 0
253 581 m 0
 253 543 283 507 321 507 c 0
 359 507 389 543 389 581 c 0
 389 619 359 655 321 655 c 4
 283 655 253 619 253 581 c 0
480 245 m 0
 480 332 409 408 321 408 c 0
 233 408 162 331 162 244 c 0
 162 156 233 75 321 75 c 0
 409 75 480 157 480 245 c 0
EndSplineSet
Validated: 1
EndChar

StartChar: three
Encoding: 51 51 55
Width: 631
Flags: W
HStem: -5 89<243.14 397.246> 425 75<323 368.104> 644 89<273.72 371.689>
VStem: 75 89<164.597 243> 391 89<521.923 625.548> 481 89<173.547 338.456>
LayerCount: 2
Fore
SplineSet
391 576 m 0
 391 612 362 644 322 644 c 0
 291 644 265 622 257 593 c 1
 171 616 l 1
 189 683 250 733 322 733 c 0
 414 733 480 660 480 576 c 0
 480 529 461 492 433 464 c 1
 486 438 528 393 551 338 c 0
 563 309 570 277 570 243 c 0
 570 106 459 -5 323 -5 c 0
 289 -5 257 2 228 14 c 0
 138 51 75 140 75 243 c 1
 164 243 l 1
 164 160 229 84 323 84 c 0
 410 84 481 166 481 254 c 0
 481 348 406 425 323 425 c 1
 323 500 l 1
 359 500 391 537 391 576 c 0
EndSplineSet
Validated: 1
EndChar

StartChar: six
Encoding: 54 54 56
Width: 640
Flags: W
HStem: -6 89<243.61 402.39> 406 87<243.61 402.39> 488 21G<76 165> 647 89<242.459 402.843>
VStem: 75 89<164.666 323.822 488 565.449> 482 89<166.208 322.483>
LayerCount: 2
Fore
SplineSet
482 244 m 0xdc
 482 332 411 406 323 406 c 0
 235 406 164 332 164 244 c 0
 164 157 235 83 323 83 c 0
 411 83 482 157 482 244 c 0xdc
571 241 m 0
 571 105 460 -6 323 -6 c 0
 186 -6 75 108 75 244 c 0
 75 381 186 493 323 493 c 0
 460 493 571 378 571 241 c 0
165 488 m 1xbc
 76 488 l 1
 76 591 139 680 229 717 c 0
 258 729 290 736 324 736 c 0
 392 736 454 708 499 663 c 1
 436 600 l 1
 407 629 367 647 324 647 c 0
 230 647 165 572 165 488 c 1xbc
EndSplineSet
Validated: 1
EndChar

StartChar: nine
Encoding: 57 57 57
Width: 639
Flags: W
HStem: -8 89<240.42 400.559> 242 89<241.012 399.39> 648 89<241.012 399.39>
VStem: 73 89<410.205 568.39> 479 89<410.205 568.39>
LayerCount: 2
Fore
SplineSet
479 489 m 4
 479 577 408 648 320 648 c 0
 233 648 162 577 162 489 c 0
 162 402 233 331 320 331 c 0
 408 331 479 402 479 489 c 4
568 489 m 0
 568 353 457 242 320 242 c 0
 183 242 73 353 73 489 c 0
 73 626 183 737 320 737 c 0
 457 737 568 626 568 489 c 0
91 145 m 1
 174 179 l 1
 199 118 258 81 320 81 c 0
 340 81 361 85 381 93 c 0
 421 110 451 141 467 179 c 1
 549 145 l 1
 524 86 478 37 415 11 c 0
 384 -2 352 -8 320 -8 c 0
 223 -8 131 50 91 145 c 1
EndSplineSet
Validated: 1
EndChar

StartChar: two
Encoding: 50 50 58
Width: 654
Flags: W
HStem: 0 89<75 570> 646 89<224.918 384.012>
VStem: 462 89<409.419 566.525>
LayerCount: 2
Fore
SplineSet
305 646 m 0
 232 646 169 599 151 530 c 1
 65 554 l 1
 94 660 191 735 301 735 c 0
 324 735 346 732 370 726 c 0
 448 704 507 647 534 576 c 0
 545 548 551 518 551 487 c 0
 551 401 511 337 461 296 c 1
 404 365 l 1
 435 391 462 437 462 488 c 0
 462 506 459 525 451 544 c 0
 431 598 379 646 305 646 c 0
75 0 m 1
 75 89 l 1
 570 89 l 1
 570 0 l 1
 75 0 l 1
EndSplineSet
Validated: 1
EndChar

StartChar: seven
Encoding: 55 55 59
Width: 686
VWidth: 999
Flags: W
HStem: 0 21G<126 218> 646 84<74 478>
VStem: 126 92<0 171.108>
LayerCount: 2
Fore
SplineSet
74 646 m 1
 74 730 l 1
 611 730 l 1
 610 646 l 1
 380 499 218 301 218 0 c 1
 126 0 l 1
 126 268 259 514 478 646 c 1
 74 646 l 1
EndSplineSet
Validated: 1
EndChar

StartChar: four
Encoding: 52 52 60
Width: 654
VWidth: 999
Flags: W
HStem: 0 91<377 467> 287 80<162 570> 662 75<373.342 469>
VStem: 74 88<367 438.891> 377 90<0 91>
LayerCount: 2
Fore
SplineSet
377 0 m 1
 377 91 l 1
 467 91 l 1
 467 0 l 1
 377 0 l 1
469 737 m 1
 469 662 l 5
 352 661 164 547 162 367 c 1
 570 367 l 1
 570 287 l 1
 74 287 l 1
 74 563.77315107 260.013447156 735.66034261 469 737 c 1
EndSplineSet
Validated: 1
EndChar

StartChar: one
Encoding: 49 49 61
Width: 254
VWidth: 909
Flags: W
HStem: 0 89<32 218> 638 89<73 163>
VStem: 73 90<638 727>
LayerCount: 2
Fore
SplineSet
73 727 m 1
 163 727 l 1
 163 638 l 1
 73 638 l 1
 73 727 l 1
32 89 m 1
 218 89 l 1
 218 0 l 1
 32 0 l 1
 32 89 l 1
EndSplineSet
Validated: 1
EndChar

StartChar: five
Encoding: 53 53 62
Width: 640
Flags: W
HStem: -5 89<239.459 400.21> 397 89<128 217 321 407.467> 641 89<164 499>
VStem: 73 89<163.753 242> 128 89<397 486> 479 89<163.205 323.541>
LayerCount: 2
Fore
SplineSet
479 242 m 0xf4
 479 336 404 401 321 401 c 1
 321 490 l 1
 424 490 513 427 550 337 c 0
 562 308 568 276 568 242 c 0
 568 106 458 -5 321 -5 c 0
 287 -5 255 1 226 13 c 0
 136 51 73 139 73 242 c 1
 162 242 l 1
 162 159 227 84 321 84 c 0
 409 84 479 155 479 242 c 0xf4
128 397 m 1xec
 128 486 l 1
 217 486 l 1
 217 397 l 1
 128 397 l 1xec
164 641 m 1
 164 730 l 1
 499 730 l 1
 499 641 l 1
 164 641 l 1
EndSplineSet
Validated: 1
EndChar

StartChar: zero
Encoding: 48 48 63
Width: 643
Flags: W
HStem: -6 91<261.064 382.936> 647 91<261.064 382.936>
VStem: 67 91<233.388 498.401> 486 91<233.599 498.612>
LayerCount: 2
Fore
SplineSet
486 366 m 0
 486 482 429 647 322 647 c 0
 215 647 158 482 158 366 c 0
 158 250 215 85 322 85 c 0
 429 85 486 250 486 366 c 0
577 366 m 0
 577 194 489 -6 322 -6 c 0
 155 -6 67 193 67 366 c 0
 67 538 155 738 322 738 c 0
 489 738 577 539 577 366 c 0
EndSplineSet
Validated: 1
EndChar

StartChar: R
Encoding: 82 82 64
Width: 723
Flags: W
HStem: 1 89<74 163> 459 78<393 432.894> 641 89<74 163> 654 82<392 430.731>
VStem: 74 89<1 90 641 730> 445 81<549.569 641.236> 576 81<0 206.586>
LayerCount: 2
Fore
SplineSet
469 497 m 1xde
 492 483 520 464 538 441 c 0
 616 342 657 178 657 -0 c 1
 576 -0 l 1
 576 155 540 318 474 402 c 0
 445 438 417 459 393 459 c 1
 393 537 l 1
 421 537 445 565 445 595 c 0
 445 626 420 654 392 654 c 1
 392 736 l 1
 463 736 526 674 526 595 c 0
 526 550 496 519 469 497 c 1xde
74 1 m 1
 74 90 l 1
 163 90 l 1
 163 1 l 1
 74 1 l 1
74 641 m 1xee
 74 730 l 1
 163 730 l 1
 163 641 l 1
 74 641 l 1xee
EndSplineSet
Validated: 1
EndChar

StartChar: parenright
Encoding: 41 41 65
Width: 504
VWidth: 999
Flags: W
HStem: -252 82<77 152.131> 623 83<74 149.366>
VStem: 354 83<101.62 355.704>
LayerCount: 2
Fore
SplineSet
354 230 m 0
 354 396 225 623 74 623 c 1
 74 706 l 1
 210 706 313 571 377 461 c 0
 408 407 437 297 437 230 c 0
 437 163 414 53 383 -1 c 0
 319 -111 213 -252 77 -252 c 1
 77 -170 l 1
 228 -170 354 63 354 230 c 0
EndSplineSet
Validated: 1
EndChar

StartChar: parenleft
Encoding: 40 40 66
Width: 504
VWidth: 999
Flags: W
HStem: -252 82<358.869 434> 623 83<361.634 437>
VStem: 74 83<101.62 355.704>
LayerCount: 2
Fore
SplineSet
157 230 m 0
 157 63 283 -170 434 -170 c 1
 434 -252 l 1
 298 -252 192 -111 128 -1 c 0
 97 53 74 163 74 230 c 0
 74 297 103 407 134 461 c 0
 198 571 301 706 437 706 c 1
 437 623 l 1
 286 623 157 396 157 230 c 0
EndSplineSet
Validated: 1
EndChar

StartChar: S
Encoding: 83 83 67
Width: 734
Flags: W
HStem: -7 89<390 471.375> 0 89<74 163> 456 89<211.786 252 390 471.464> 641 89<212.157 252 533 622>
VStem: 74 89<0 89> 114 89<552.931 634.409> 533 89<641 730> 563.25 85.8751<175.169 363.048>
LayerCount: 2
Fore
SplineSet
533 641 m 1x32
 533 730 l 1
 622 730 l 1
 622 641 l 1
 533 641 l 1x32
74 0 m 1x78
 74 89 l 1
 163 89 l 1
 163 0 l 1
 74 0 l 1x78
390 545 m 1
 562.874819299 545 649.125135673 407.199637997 649.125135673 269.299565324 c 0
 649.125135673 131.199782505 562.624818907 -7 390 -7 c 1
 390 82 l 1
 505.5 82 563.25 175.5 563.25 269 c 0xb1
 563.25 362.5 505.5 456 390 456 c 1
 390 545 l 1
252 454 m 1
 178 454 114 513 114 594 c 0
 114 674 179 734 252 734 c 1
 252 645 l 1
 226 645 203 622 203 594 c 0x34
 203 565 225 543 252 543 c 1
 252 454 l 1
EndSplineSet
Validated: 1
EndChar
